HIERARCHY
ROOT Hips
{
	OFFSET 0.000000 71.427986 0.000000
	CHANNELS 6 Xposition Yposition Zposition Xrotation Yrotation Zrotation
	JOINT Pelvis
	{
		OFFSET 0.000000 0.000000 0.000000
		CHANNELS 3 Xrotation Yrotation Zrotation
		JOINT LeftUpLeg
		{
			OFFSET 6.797100 -2.508499 -1.318700
			CHANNELS 3 Xrotation Yrotation Zrotation
			JOINT LeftLeg
			{
				OFFSET 0.069008 -29.241863 0.690200
				CHANNELS 3 Xrotation Yrotation Zrotation
				JOINT LeftFoot
				{
					OFFSET -0.069008 -29.568123 -0.266800
					CHANNELS 3 Xrotation Yrotation Zrotation
					JOINT LeftToeBase
					{
						OFFSET 3.145500 -8.631000 16.059900
						CHANNELS 3 Xrotation Yrotation Zrotation
						End Site
						{
							OFFSET 0.000000 18.501587 0.000000
						}
					}
				}
			}
			JOINT Left_ShortSleeve
			{
				OFFSET 0.265923 -10.480953 1.153800
				CHANNELS 3 Xrotation Yrotation Zrotation
				End Site
				{
					OFFSET 1.725763 19.823879 0.000000
				}
			}
		}
		JOINT RightUpLeg
		{
			OFFSET -6.797100 -2.508499 -1.318700
			CHANNELS 3 Xrotation Yrotation Zrotation
			JOINT RightLeg
			{
				OFFSET -0.082453 -29.241932 0.688000
				CHANNELS 3 Xrotation Yrotation Zrotation
				JOINT RightFoot
				{
					OFFSET 0.082453 -29.568058 -0.264600
					CHANNELS 3 Xrotation Yrotation Zrotation
					JOINT RightToeBase
					{
						OFFSET -3.115300 -8.682800 16.113400
						CHANNELS 3 Xrotation Yrotation Zrotation
						End Site
						{
							OFFSET 0.000000 18.567114 0.000000
						}
					}
				}
			}
			JOINT Right_ShortSleeve
			{
				OFFSET -0.265923 -10.480953 1.153800
				CHANNELS 3 Xrotation Yrotation Zrotation
				End Site
				{
					OFFSET -1.725766 19.823910 0.000000
				}
			}
		}
	}
	JOINT Spine
	{
		OFFSET 0.000000 13.368103 0.470500
		CHANNELS 3 Xrotation Yrotation Zrotation
		JOINT Spine1
		{
			OFFSET 0.147000 13.837402 0.538800
			CHANNELS 3 Xrotation Yrotation Zrotation
			JOINT Spine2
			{
				OFFSET 0.168000 16.242897 -1.435500
				CHANNELS 3 Xrotation Yrotation Zrotation
				JOINT Neck
				{
					OFFSET 0.217200 18.631500 -1.679100
					CHANNELS 3 Xrotation Yrotation Zrotation
					JOINT Head
					{
						OFFSET 0.000000 6.599396 1.385900
						CHANNELS 3 Xrotation Yrotation Zrotation
						JOINT Hat
						{
							OFFSET -0.532200 27.220596 -10.096100
							CHANNELS 3 Xrotation Yrotation Zrotation
							End Site
							{
								OFFSET 0.000000 22.029861 0.000000
							}
						}
						JOINT HairD
						{
							OFFSET -10.777400 17.437393 -1.325900
							CHANNELS 3 Xrotation Yrotation Zrotation
							JOINT HairD1
							{
								OFFSET -3.290299 -11.051193 1.062200
								CHANNELS 3 Xrotation Yrotation Zrotation
								End Site
								{
									OFFSET 0.000000 11.579437 0.000000
								}
							}
						}
						JOINT HairB
						{
							OFFSET -10.777400 17.437393 1.467900
							CHANNELS 3 Xrotation Yrotation Zrotation
							JOINT HairB1
							{
								OFFSET -1.561200 -12.956299 3.590200
								CHANNELS 3 Xrotation Yrotation Zrotation
								End Site
								{
									OFFSET 0.000000 13.534866 0.000000
								}
							}
						}
						JOINT HairA
						{
							OFFSET 9.713100 17.437393 1.467900
							CHANNELS 3 Xrotation Yrotation Zrotation
							JOINT HairA1
							{
								OFFSET 1.561200 -12.956299 3.590200
								CHANNELS 3 Xrotation Yrotation Zrotation
								End Site
								{
									OFFSET 0.000000 13.534866 0.000000
								}
							}
						}
						JOINT HairC
						{
							OFFSET 9.713100 17.437393 -1.325900
							CHANNELS 3 Xrotation Yrotation Zrotation
							JOINT HairC1
							{
								OFFSET 3.290300 -11.051193 1.062200
								CHANNELS 3 Xrotation Yrotation Zrotation
								End Site
								{
									OFFSET 0.000000 11.579437 0.000000
								}
							}
						}
					}
				}
				JOINT LeftShoulder
				{
					OFFSET 5.101800 15.108002 -2.763700
					CHANNELS 3 Xrotation Yrotation Zrotation
					JOINT LeftArm
					{
						OFFSET 9.825497 2.506317 -1.597400
						CHANNELS 3 Xrotation Yrotation Zrotation
						JOINT LeftForeArm
						{
							OFFSET 21.966244 0.000000 0.000000
							CHANNELS 3 Xrotation Yrotation Zrotation
							JOINT LeftHand
							{
								OFFSET 33.879036 0.000000 0.000000
								CHANNELS 3 Xrotation Yrotation Zrotation
								JOINT LeftHandThumb1
								{
									OFFSET 6.715286 -2.359680 3.363841
									CHANNELS 3 Xrotation Yrotation Zrotation
									JOINT LeftHandThumb2
									{
										OFFSET 2.507072 -1.447464 1.447461
										CHANNELS 3 Xrotation Yrotation Zrotation
										JOINT LeftHandThumb3
										{
											OFFSET 2.898338 -1.673355 1.673357
											CHANNELS 3 Xrotation Yrotation Zrotation
											End Site
											{
												OFFSET -0.295959 3.727692 -0.131651
											}
										}
									}
								}
								JOINT LeftHandIndex1
								{
									OFFSET 14.190811 -0.254547 3.840278
									CHANNELS 3 Xrotation Yrotation Zrotation
									JOINT LeftHandIndex2
									{
										OFFSET 3.551727 0.000000 -0.000000
										CHANNELS 3 Xrotation Yrotation Zrotation
										JOINT LeftHandIndex3
										{
											OFFSET 2.894196 0.000000 0.000000
											CHANNELS 3 Xrotation Yrotation Zrotation
											End Site
											{
												OFFSET -1.000603 2.690872 0.366626
											}
										}
									}
								}
								JOINT LeftHandMiddle1
								{
									OFFSET 13.776489 0.000000 0.000000
									CHANNELS 3 Xrotation Yrotation Zrotation
									JOINT LeftHandMiddle2
									{
										OFFSET 3.438232 0.000000 0.000000
										CHANNELS 3 Xrotation Yrotation Zrotation
										JOINT LeftHandMiddle3
										{
											OFFSET 3.691551 0.000000 0.000000
											CHANNELS 3 Xrotation Yrotation Zrotation
											End Site
											{
												OFFSET -1.082298 3.499527 0.457670
											}
										}
									}
								}
								JOINT LeftHandRing1
								{
									OFFSET 13.966164 -0.268127 -3.067488
									CHANNELS 3 Xrotation Yrotation Zrotation
									JOINT LeftHandRing2
									{
										OFFSET 3.162567 0.000000 0.000000
										CHANNELS 3 Xrotation Yrotation Zrotation
										JOINT LeftHandRing3
										{
											OFFSET 3.324348 0.000000 0.000000
											CHANNELS 3 Xrotation Yrotation Zrotation
											End Site
											{
												OFFSET -0.861900 3.184998 0.405154
											}
										}
									}
								}
								JOINT LeftHandPinky1
								{
									OFFSET 13.131393 -0.168503 -5.746925
									CHANNELS 3 Xrotation Yrotation Zrotation
									JOINT LeftHandPinky2
									{
										OFFSET 2.849182 0.000000 0.000000
										CHANNELS 3 Xrotation Yrotation Zrotation
										JOINT LeftHandPinky3
										{
											OFFSET 2.805038 0.000000 0.000000
											CHANNELS 3 Xrotation Yrotation Zrotation
											End Site
											{
												OFFSET -0.882500 2.642609 0.325652
											}
										}
									}
								}
							}
							JOINT Left_Sleeve
							{
								OFFSET 6.592125 -0.646545 0.805568
								CHANNELS 3 Xrotation Yrotation Zrotation
								End Site
								{
									OFFSET -0.000179 20.275787 -0.000000
								}
							}
						}
					}
				}
				JOINT RightShoulder
				{
					OFFSET -5.731700 15.108002 -2.763700
					CHANNELS 3 Xrotation Yrotation Zrotation
					JOINT RightArm
					{
						OFFSET -9.825497 2.506317 -1.597400
						CHANNELS 3 Xrotation Yrotation Zrotation
						JOINT RightForeArm
						{
							OFFSET -21.966242 0.000000 0.000000
							CHANNELS 3 Xrotation Yrotation Zrotation
							JOINT RightHand
							{
								OFFSET -33.879032 0.000000 0.000000
								CHANNELS 3 Xrotation Yrotation Zrotation
								JOINT RightHandThumb1
								{
									OFFSET -6.715286 -2.359680 3.363841
									CHANNELS 3 Xrotation Yrotation Zrotation
									JOINT RightHandThumb2
									{
										OFFSET -2.507072 -1.447464 1.447461
										CHANNELS 3 Xrotation Yrotation Zrotation
										JOINT RightHandThumb3
										{
											OFFSET -2.898338 -1.673355 1.673357
											CHANNELS 3 Xrotation Yrotation Zrotation
											End Site
											{
												OFFSET 0.295959 3.727692 -0.131651
											}
										}
									}
								}
								JOINT RightHandIndex1
								{
									OFFSET -14.190811 -0.254547 3.840278
									CHANNELS 3 Xrotation Yrotation Zrotation
									JOINT RightHandIndex2
									{
										OFFSET -3.551727 0.000000 -0.000000
										CHANNELS 3 Xrotation Yrotation Zrotation
										JOINT RightHandIndex3
										{
											OFFSET -2.894196 0.000000 0.000000
											CHANNELS 3 Xrotation Yrotation Zrotation
											End Site
											{
												OFFSET 1.000603 2.690872 0.366626
											}
										}
									}
								}
								JOINT RightHandMiddle1
								{
									OFFSET -13.776489 0.000000 0.000000
									CHANNELS 3 Xrotation Yrotation Zrotation
									JOINT RightHandMiddle2
									{
										OFFSET -3.438232 0.000000 0.000000
										CHANNELS 3 Xrotation Yrotation Zrotation
										JOINT RightHandMiddle3
										{
											OFFSET -3.691551 0.000000 0.000000
											CHANNELS 3 Xrotation Yrotation Zrotation
											End Site
											{
												OFFSET 1.082298 3.499527 0.457670
											}
										}
									}
								}
								JOINT RightHandRing1
								{
									OFFSET -13.966164 -0.268127 -3.067488
									CHANNELS 3 Xrotation Yrotation Zrotation
									JOINT RightHandRing2
									{
										OFFSET -3.162567 0.000000 0.000000
										CHANNELS 3 Xrotation Yrotation Zrotation
										JOINT RightHandRing3
										{
											OFFSET -3.324348 0.000000 0.000000
											CHANNELS 3 Xrotation Yrotation Zrotation
											End Site
											{
												OFFSET 0.861900 3.184998 0.405154
											}
										}
									}
								}
								JOINT RightHandPinky1
								{
									OFFSET -13.131393 -0.168503 -5.746925
									CHANNELS 3 Xrotation Yrotation Zrotation
									JOINT RightHandPinky2
									{
										OFFSET -2.849182 0.000000 0.000000
										CHANNELS 3 Xrotation Yrotation Zrotation
										JOINT RightHandPinky3
										{
											OFFSET -2.805038 0.000000 0.000000
											CHANNELS 3 Xrotation Yrotation Zrotation
											End Site
											{
												OFFSET 0.882500 2.642609 0.325652
											}
										}
									}
								}
							}
							JOINT Right_Sleeve
							{
								OFFSET -6.592125 -0.646545 0.805568
								CHANNELS 3 Xrotation Yrotation Zrotation
								End Site
								{
									OFFSET 0.000179 20.275787 -0.000000
								}
							}
						}
					}
				}
				JOINT Bind_Right_JacketString
				{
					OFFSET -3.534800 11.969597 7.200700
					CHANNELS 3 Xrotation Yrotation Zrotation
					JOINT Bind_Right_JacketString1
					{
						OFFSET -0.319900 -6.102600 2.794100
						CHANNELS 3 Xrotation Yrotation Zrotation
						End Site
						{
							OFFSET 0.000000 6.719452 0.000000
						}
					}
				}
				JOINT Bind_Left_JacketString
				{
					OFFSET 2.904800 11.969597 7.200700
					CHANNELS 3 Xrotation Yrotation Zrotation
					JOINT Bind_Left_JacketString1
					{
						OFFSET 0.364800 -5.904503 3.186800
						CHANNELS 3 Xrotation Yrotation Zrotation
						End Site
						{
							OFFSET 0.000000 6.719513 0.000000
						}
					}
				}
				JOINT HairE
				{
					OFFSET 5.915200 17.612701 -11.592200
					CHANNELS 3 Xrotation Yrotation Zrotation
					JOINT HairE1
					{
						OFFSET 0.289200 -7.171898 -1.284500
						CHANNELS 3 Xrotation Yrotation Zrotation
						End Site
						{
							OFFSET 0.000000 7.291756 0.000000
						}
					}
				}
				JOINT HairF
				{
					OFFSET -0.864800 17.612701 -11.592200
					CHANNELS 3 Xrotation Yrotation Zrotation
					JOINT HairF1
					{
						OFFSET 0.000000 -14.087097 -2.127501
						CHANNELS 3 Xrotation Yrotation Zrotation
						End Site
						{
							OFFSET 0.000000 14.246841 0.000000
						}
					}
				}
				JOINT HairG
				{
					OFFSET -8.087700 17.612701 -11.592200
					CHANNELS 3 Xrotation Yrotation Zrotation
					JOINT HairG1
					{
						OFFSET -0.293600 -6.081398 -0.910100
						CHANNELS 3 Xrotation Yrotation Zrotation
						End Site
						{
							OFFSET 0.000000 6.156120 0.000000
						}
					}
				}
			}
		}
	}
	JOINT Pouch
	{
		OFFSET 0.000000 4.394501 10.847300
		CHANNELS 3 Xrotation Yrotation Zrotation
		End Site
		{
			OFFSET 0.000000 21.880577 0.000000
		}
	}
	JOINT Bag
	{
		OFFSET -13.229000 4.813004 -0.593300
		CHANNELS 3 Xrotation Yrotation Zrotation
		End Site
		{
			OFFSET 0.000000 21.880577 0.000000
		}
	}
	JOINT OccupyGuyFacialAnim_Joint
	{
		OFFSET 1.000000 -70.206398 -1.655000
		CHANNELS 3 Xrotation Yrotation Zrotation
		End Site
		{
			OFFSET 0.000000 21.880577 0.000000
		}
	}
}
MOTION
Frames: 4
Frame Time: 0.016667
5.914127 45.908440 82.783134 26.462011 -55.973803 32.935941 -0.000000 -0.000002 -0.000001 -59.955681 -42.296561 30.197837 84.962096 2.288889 -41.638015 -14.693132 -1.905481 -22.257457 -0.000000 -0.000001 0.000000 0.000002 0.000002 -0.000000 -82.123264 22.401019 -18.113798 102.174541 6.672278 0.592747 -30.889394 -5.011635 13.380752 0.000000 -0.000002 -0.000000 -0.000002 -0.000001 -0.000002 36.074662 -1.828599 -12.509795 -1.957388 5.375160 -0.991202 2.116141 5.078851 -0.821974 -12.375891 22.130633 -4.641765 -6.246890 18.672308 -15.900096 0.000002 -0.000000 0.000001 0.000002 -0.000000 0.000001 0.000002 -0.000000 0.000001 0.000002 -0.000000 0.000001 0.000000 -0.000000 0.000001 0.000002 -0.000000 0.000001 0.000000 -0.000000 0.000001 0.000002 -0.000000 0.000001 0.000002 -0.000000 0.000001 5.941484 -18.519081 -1.957347 -27.184722 20.945569 -31.616362 -81.078293 -81.172632 -70.319898 19.572880 -8.968041 11.330313 -2.637045 -7.745175 8.357708 4.850465 25.883364 0.310218 -0.000001 0.000003 0.000000 13.403497 -1.931355 -0.362594 -0.144268 0.314218 -46.537286 0.000001 -0.000000 -0.000004 8.600801 -0.764869 -14.454868 0.337755 0.740983 -48.772906 0.000001 0.000001 -0.000001 6.268062 2.785853 -30.963095 0.134959 0.420939 -52.428153 -0.000002 0.000000 -0.000002 -5.507718 7.394419 -31.738789 0.325638 0.344466 -72.129250 -0.000002 -0.000000 0.000001 -0.000000 -0.000002 -0.000001 0.012694 27.801549 18.707796 -54.993910 -1.387946 14.818756 -31.712906 58.823023 27.684046 29.626711 11.680890 -21.865409 4.362868 -2.376078 -10.417854 6.382030 -22.873387 7.534690 -0.000001 -0.000001 0.000000 12.580750 5.223911 8.328368 -0.320499 -0.269434 55.178547 0.000002 -0.000001 0.000000 6.735566 -0.416810 21.668234 0.630582 -0.710898 59.162730 -0.000000 -0.000002 0.000001 3.077455 -6.824870 32.208706 0.532229 -0.321435 64.382203 -0.000000 0.000001 -0.000000 -7.813628 -10.789259 40.442974 0.564485 -0.208636 85.786923 0.000002 0.000000 -0.000005 0.000001 -0.000002 0.000000 -0.000002 0.000000 0.000001 -0.000002 -0.000001 0.000003 -0.000002 0.000000 0.000000 -0.000002 0.000000 0.000000 -0.000002 0.000000 0.000001 -0.000002 -0.000001 0.000003 -0.000002 0.000000 0.000000 -0.000002 0.000000 0.000000 -0.000002 0.000000 0.000001 -0.000002 -0.000001 0.000003 -0.000000 -0.000002 -0.000001 -0.000000 -0.000002 -0.000001 -0.000000 -0.000002 -0.000001 
6.183887 46.034973 83.553604 28.166761 -56.445370 34.165200 0.000000 0.000000 0.000001 -60.186398 -42.177648 30.742675 86.051750 1.962658 -42.459290 -15.597148 -2.087109 -21.430685 -0.000000 0.000005 -0.000000 -0.000000 0.000001 0.000000 -82.175276 22.831477 -18.308595 101.091342 6.918558 0.607956 -30.390916 -4.679012 14.236763 0.000000 0.000000 -0.000000 0.000001 0.000000 -0.000000 35.756262 -2.152919 -13.978601 -2.211917 5.602697 -0.808053 1.905238 5.369612 -0.299744 -12.094925 22.484178 -4.602858 -6.896202 18.777331 -15.089619 -0.000000 -0.000000 -0.000000 -0.000000 -0.000000 -0.000000 -0.000000 -0.000000 0.000000 -0.000000 -0.000000 -0.000001 -0.000000 -0.000000 -0.000001 -0.000000 -0.000000 -0.000001 -0.000000 -0.000000 -0.000001 -0.000000 -0.000000 -0.000000 -0.000000 -0.000000 -0.000000 6.664356 -18.263916 -2.232504 -27.495669 17.707793 -32.135111 -65.949165 -80.866605 -55.485137 19.983563 -7.423055 10.194804 -2.565564 -7.754372 8.363825 4.988669 26.393934 0.484762 0.000001 0.000001 0.000000 13.409938 -1.900478 -2.024959 -0.142140 0.315736 -49.012290 -0.000002 0.000001 -0.000005 8.587733 -0.735836 -16.027773 0.347276 0.750554 -51.229393 0.000005 0.000001 0.000001 6.254690 2.818108 -32.426036 0.146172 0.429316 -54.763579 -0.000002 -0.000001 -0.000000 -5.551659 7.431832 -32.962411 0.336808 0.347412 -74.252516 -0.000000 -0.000002 0.000003 -0.000002 -0.000000 -0.000000 0.392895 28.446681 18.972637 -54.816899 -0.739637 15.725247 -32.159539 59.955715 28.371983 30.216552 9.118556 -21.036115 4.934222 -2.758365 -10.624082 6.709299 -23.370548 7.689443 -0.000003 0.000000 -0.000000 12.835081 4.880006 10.435493 -0.342470 -0.295510 58.867065 -0.000004 0.000001 0.000004 6.540489 -0.366055 24.090060 0.670352 -0.689407 62.625738 -0.000001 -0.000002 0.000002 2.533749 -6.923140 34.344397 0.559781 -0.307386 67.256374 -0.000001 0.000004 -0.000001 -8.870806 -11.299488 42.195795 0.584074 -0.186656 88.957900 0.000002 0.000000 0.000001 0.000000 -0.000001 -0.000001 0.000001 0.000001 -0.000000 0.000001 0.000000 0.000001 0.000001 0.000001 -0.000001 0.000001 0.000001 -0.000001 0.000001 0.000001 -0.000000 0.000001 0.000000 0.000002 0.000001 0.000001 -0.000001 0.000001 0.000001 -0.000001 0.000001 0.000001 -0.000000 0.000001 0.000000 0.000002 0.000000 0.000000 0.000001 0.000000 0.000000 0.000001 0.000000 0.000000 0.000001 
6.327255 46.271111 84.293015 29.222561 -56.701386 35.128237 -0.000001 0.000001 -0.000000 -60.289786 -42.120025 30.538735 86.887410 1.975118 -43.231611 -16.463543 -2.136236 -20.823336 0.000000 0.000001 -0.000000 0.000002 -0.000001 0.000003 -81.747522 23.034979 -18.922020 100.031850 7.024875 0.357942 -30.124491 -4.296438 14.995971 -0.000000 -0.000000 -0.000000 0.000000 -0.000001 -0.000001 35.086456 -2.456307 -15.477381 -2.135785 5.671946 -0.623126 1.911768 5.457651 0.250410 -12.116948 22.696526 -4.358123 -7.303191 18.909083 -14.670548 0.000001 0.000000 -0.000001 0.000001 0.000000 -0.000001 0.000001 0.000000 -0.000000 0.000001 0.000000 -0.000001 -0.000001 0.000000 -0.000001 0.000001 0.000000 -0.000001 -0.000001 0.000000 -0.000001 0.000001 0.000000 -0.000001 0.000001 0.000000 -0.000001 7.124630 -18.651619 -2.187865 -27.932349 15.768878 -32.151951 -52.503811 -79.963641 -42.362770 19.874051 -6.198304 8.772591 -2.494155 -7.763598 8.369867 5.113616 26.867024 0.645992 -0.000001 -0.000001 -0.000001 13.421739 -1.871629 -3.652800 -0.140175 0.317250 -51.493930 -0.000003 0.000002 -0.000002 8.575920 -0.708604 -17.530017 0.357470 0.759464 -53.634296 0.000001 0.000003 -0.000002 6.241557 2.849652 -33.783010 0.157182 0.436973 -56.993346 -0.000001 0.000001 0.000000 -5.595000 7.468760 -34.051164 0.347444 0.349657 -76.219754 -0.000002 0.000002 0.000005 -0.000000 0.000002 0.000001 0.481423 28.460042 19.320838 -54.296247 -0.269332 17.138960 -33.555869 61.774779 30.127230 31.259553 6.241251 -19.766149 5.449437 -3.079958 -10.807722 7.007131 -23.827945 7.829297 0.000001 -0.000001 0.000001 13.115589 4.577863 12.470365 -0.362184 -0.324212 62.492727 -0.000002 -0.000000 0.000002 6.340845 -0.331192 26.374432 0.707222 -0.664511 65.968863 -0.000002 -0.000001 0.000003 2.011737 -7.073361 36.304767 0.584417 -0.291965 69.957530 0.000001 0.000006 -0.000005 -9.826588 -11.857208 43.720000 0.600192 -0.164839 91.846387 0.000003 -0.000001 0.000004 0.000001 -0.000001 0.000002 0.000001 0.000002 -0.000002 -0.000001 0.000002 0.000001 0.000001 0.000002 -0.000003 0.000001 0.000002 -0.000003 0.000001 0.000002 -0.000002 -0.000001 0.000002 0.000001 0.000001 0.000002 -0.000003 0.000001 0.000002 -0.000003 0.000001 0.000002 -0.000002 -0.000001 0.000002 0.000001 -0.000001 0.000001 -0.000000 -0.000001 0.000001 -0.000000 -0.000001 0.000001 -0.000000 
6.495760 46.566780 84.981422 29.687690 -56.552884 35.326807 -0.000000 0.000001 -0.000001 -60.894545 -42.186667 29.712532 87.444030 2.123853 -43.595793 -17.062236 -2.134936 -20.193309 0.000000 -0.000002 0.000000 -0.000003 0.000000 0.000000 -81.038890 22.644097 -19.952265 98.871503 6.266066 -0.028128 -29.843337 -3.265955 16.074425 0.000000 -0.000000 -0.000000 -0.000001 -0.000004 -0.000000 34.196329 -2.621497 -16.045626 -1.873231 5.586118 -0.555367 2.077611 5.368876 0.484105 -12.370048 22.770468 -4.044477 -7.971463 19.199325 -14.250016 0.000001 0.000000 0.000001 0.000001 0.000000 0.000001 0.000001 0.000000 0.000001 0.000001 0.000000 -0.000000 -0.000000 0.000000 -0.000000 0.000001 0.000000 -0.000000 -0.000000 0.000000 -0.000000 0.000001 0.000000 0.000001 0.000001 0.000000 0.000001 6.965540 -19.294374 -2.102316 -28.134857 15.072523 -32.000539 -44.720903 -79.216916 -34.966023 19.735948 -4.859226 6.786339 -2.423046 -7.772832 8.375880 5.223521 27.295352 0.791252 -0.000001 -0.000000 0.000001 13.438334 -1.845265 -5.224455 -0.138573 0.318776 -53.948867 0.000002 -0.000001 -0.000000 8.565224 -0.683845 -18.940743 0.367946 0.767627 -55.955427 0.000003 -0.000001 0.000002 6.228793 2.879326 -35.013530 0.167720 0.443791 -59.086368 0.000001 0.000000 -0.000002 -5.635506 7.502942 -34.986196 0.357203 0.351371 -78.001252 -0.000003 -0.000000 -0.000001 -0.000001 -0.000001 -0.000003 0.326731 28.032099 19.689718 -54.046071 0.106963 18.102728 -34.543146 63.125592 31.386410 32.050478 4.260136 -17.576660 5.901726 -3.333590 -10.969730 7.271106 -24.239506 7.950929 -0.000001 -0.000001 0.000000 13.414733 4.320659 14.409768 -0.379316 -0.354816 66.014885 -0.000000 0.000002 0.000001 6.140124 -0.310645 28.493893 0.740365 -0.636869 69.154402 0.000003 0.000001 -0.000001 1.519329 -7.265414 38.063025 0.606022 -0.275898 72.451860 0.000003 0.000000 -0.000000 -10.670374 -12.435089 44.989589 0.613048 -0.144032 94.411601 -0.000001 0.000001 0.000001 0.000001 -0.000001 -0.000001 -0.000002 -0.000001 -0.000002 -0.000002 0.000000 0.000000 -0.000002 -0.000001 -0.000003 -0.000002 -0.000001 -0.000003 -0.000002 -0.000001 -0.000002 -0.000002 0.000000 0.000000 -0.000002 -0.000001 -0.000003 -0.000002 -0.000001 -0.000003 -0.000002 -0.000001 -0.000002 -0.000002 0.000000 0.000000 -0.000000 0.000001 -0.000001 -0.000000 0.000001 -0.000001 -0.000000 0.000001 -0.000001 
